<svg xmlns="http://www.w3.org/2000/svg" width="3mm" height="3mm" viewBox="0 0 8.5 8.5">
  <title>globe</title>
  <g id="Layer_2" data-name="Layer 2">
    <g id="Layer_1-2" data-name="Layer 1">
      <path d="M7.24,2.07s.09.05.16.16a1.63,1.63,0,0,1,0,.35L7,2.53s-.15-.31-.35-.21,0,.15-.35.21-.45-.4-.65-.25-.29,0-.34.18,0,.27,0,.27L5,2.7c-.27.13-.13.9-.13.9a.92.92,0,0,0,.68,0A1.33,1.33,0,0,0,5.92,3l.32.58c.17.09.24-.28.24-.28a.29.29,0,0,1,.15-.45l.45.2.31.35,0,.26L6.78,4s-.1.61-.86.11c0,0-1.16-.2-1.16.15s-.08.12,0,.58c0,0-.21,1,.34,1a2.86,2.86,0,0,0,.86-.17c.51-.26.51.27.51.27l0,.51-.06.31s-.1.17.1.38a4.11,4.11,0,0,0,1.46-2.6.45.45,0,0,1-.35-.21L7.24,4h.5l.15.07A3.66,3.66,0,0,0,7.4,2.23C7.37,2.12,7.32,2,7.24,2.07ZM6,1l0,.34-.15.35c0,.25.25.26.25.26s.4.07.57-.56C6.38,1.1,6.08,1,6,1ZM5.34,2.14a.26.26,0,0,1-.09-.3c0-.12.11-.32,0-.29A.45.45,0,0,0,5,1.7S4.91,2,5,2.1,5.47,2.27,5.34,2.14Zm-.66-.21s-.19.06-.13.15.24.21.26.14S4.94,2,4.68,1.93ZM3.06.86c0,.06,0,.12,0,.16s.25.55.51.84.3-.31.27-.38.26-.32.28-.51.2-.13.31-.32A1.58,1.58,0,0,0,3.06.86Zm-.26.77c-.61,0-.59-.18-.45-.21a.7.7,0,0,0,.32,0L2.58,1A3.65,3.65,0,0,0,.68,3.14a2.33,2.33,0,0,1,0,.36.54.54,0,0,0,0,.25A1.3,1.3,0,0,0,.85,4L1,4.22a.65.65,0,0,0,.12.34c.09.1-.06.21-.06.21A2,2,0,0,0,1,5.25a2,2,0,0,0,.14.53A2.18,2.18,0,0,0,1.59,6s.21.14.21.23a.68.68,0,0,0,.13.32c.06.1.34.31.32.48s.07.13.12.28a.38.38,0,0,0,.34.23s.17-.48.11-.57-.15-.3-.15-.3l0-.33a.63.63,0,0,1,.15-.2.75.75,0,0,0,.21-.29,4.13,4.13,0,0,0,.21-.47c0-.1.28-.38.13-.53a1.22,1.22,0,0,0-.55-.21c-.13,0-.49-.15-.53-.3s-.36-.09-.47,0-.41.1-.45,0c.1.33-.5-.52,0-.87,0,.09.28,0,.36,0S2,3.37,2,3.56s.38.33.38.26.08-.35,0-.46l-.12-.21A.29.29,0,0,0,2.63,3a1.31,1.31,0,0,0,.12-.42c0-.09,0-.22-.1-.2s-.06-.23.13-.19.08.17.08.17.11.34.19.19.42-.42.23-.5S3.26,1.67,2.8,1.63ZM4.25,8.5a4.25,4.25,0,0,1,0-8.5A4.15,4.15,0,0,1,8.5,4.25,4.25,4.25,0,0,1,4.25,8.5Z" style="fill: #48aae0;fill-rule: evenodd"/>
    </g>
  </g>
</svg>
