<svg xmlns="http://www.w3.org/2000/svg" width="102.16mm" height="17.43mm" viewBox="0 0 289.57 49.41">
  <title>logo</title>
  <g id="Layer_2" data-name="Layer 2">
    <g id="Layer_1-2" data-name="Layer 1">
      <g>
        <path d="M155.5,10h-7.84V29.09h7.84c3.41,0,7.1-1.05,7.1-4.89a4.79,4.79,0,0,0-3.8-4.69,4.25,4.25,0,0,0,3-4.16C161.78,11.64,158.73,10,155.5,10Zm-6.39,1.35h6.47c2.3,0,4.82,1.19,4.82,4s-2.41,3.51-4.71,3.51h-6.58Zm0,8.93h6.67c2.61,0,5.35,1,5.39,3.94s-3.14,3.51-5.59,3.51h-6.47Zm26.39-8.88c5.36,0,8,3.92,8,8.18s-2.71,8.2-8,8.2-8-4-8-8.2C167.46,15.2,170.13,11.36,175.5,11.36Zm0-1.35c-6.31,0-9.44,4.56-9.44,9.5s3.16,9.58,9.44,9.58,9.41-4.69,9.44-9.52S181.8,10,175.5,10Zm15.95,1.35h6.71a4.34,4.34,0,0,1,4.52,4.56c0,2.67-1.46,4.55-4.68,4.55h-6.55Zm6.78,10.45c4.05,0,6-2.76,5.93-5.87a5.73,5.73,0,0,0-6-5.93H190V29h1.46V21.89h5L202.88,29h1.82ZM209.42,29v-19H208V29Zm5.43-19V29h1.46V13.37L229.22,29h.57v-19h-1.43v15.7l-12.89-15.7Zm35.86,2.72A9.77,9.77,0,0,0,244,10c-5.58,0-9.53,3.75-9.5,9.39,0,5.21,3.26,9.7,9.5,9.7a9.49,9.49,0,0,0,7-3.05V18.88h-7.78v1.34h6.4v5.3A8.12,8.12,0,0,1,244,27.71c-5.35,0-8.1-3.84-8.1-8.34a7.65,7.65,0,0,1,8.1-8,8.72,8.72,0,0,1,5.92,2.3Zm6.72-1.39H269V10H256V29.09h13.36v-1.4H257.43V20.22H268.5V18.88H257.43ZM274,10.06V29h1.45V13.37L288.35,29h.57v-19h-1.43v15.7L274.6,10.06Z" style="fill: #4aace1;fill-rule: evenodd"/>
        <path d="M98.37,35a3.09,3.09,0,0,0-5,2.13c0,1.53.89,2.74,3,2.74a2.5,2.5,0,0,0,2-.78V36.69H96.27v.75h1.47v1.13a1.81,1.81,0,0,1-1.3.51,1.89,1.89,0,0,1-2-2,2,2,0,0,1,2-2.05,2,2,0,0,1,1.42.6Zm8.55,3.84h-3.13V37.44h3v-.75h-3V35.32h3.13V34.25h-4.2v5.62h4.2ZM113,35a1.85,1.85,0,0,1,1.84,2.07,1.8,1.8,0,0,1-1.84,2,1.83,1.83,0,0,1-1.87-2A1.87,1.87,0,0,1,113,35Zm0-.74a2.69,2.69,0,0,0-2.94,2.8,2.94,2.94,0,0,0,5.86,0A2.68,2.68,0,0,0,113,34.3Zm8,5.53H122V35.12h1.77v-.74H119.2v.74H121Zm11.2,0V34.3h-1.08v2.39h-2.51V34.3H127.5v5.53h1.08V37.44h2.51v2.39Zm8.47-1H137.5V37.44h3v-.75h-3V35.32h3.14V34.25h-4.21v5.62h4.21Zm6.17-3.66a1,1,0,0,1,0,2h-1.57v-2Zm2.29,4.61-1.7-2a1.52,1.52,0,0,0,1.42-1.67c0-1-.7-1.69-2-1.69-.87-.08-1.75-.09-2.65-.09v5.53h1.08v-2h1l1.6,2h1.27Zm8,.08h1.07V34.3h-1.23l-1.7,2.37-1.7-2.37h-1.23v5.53h1.08v-4l1.73,2.4h.2l1.78-2.4Zm6,0V34.3H162v5.53Zm7.95-4.6a2.25,2.25,0,0,0-2-.93c-.89,0-2,.39-2,1.45C167,37,168,37.3,169,37.43c.64.08,1.12.29,1.12.82s-.54.83-1.11.83a1.49,1.49,0,0,1-1.43-.88l-.9.45A2.32,2.32,0,0,0,169,39.83c1.08,0,2.19-.43,2.19-1.58,0-1.33-1.1-1.63-2.11-1.77-.57-.08-1.07-.22-1.07-.7s.32-.74,1-.74a1.35,1.35,0,0,1,1.15.62Zm8.05,3.25a2,2,0,0,1-1.41.6,1.85,1.85,0,0,1-1.92-2A1.9,1.9,0,0,1,177.68,35a1.87,1.87,0,0,1,1.35.56l.7-.73a2.8,2.8,0,0,0-2-.91,2.94,2.94,0,0,0-3,3.14,2.65,2.65,0,0,0,3,2.76,3.48,3.48,0,0,0,2.12-.63Zm8.79,1.35V34.3H186.8v2.39h-2.51V34.3h-1.07v5.53h1.07V37.44h2.51v2.39Zm8.07-1h-3.13V37.44h3v-.75h-3V35.32H196V34.25h-4.21v5.62H196ZM207,35a1.85,1.85,0,0,1,1.85,2.07,1.8,1.8,0,0,1-1.85,2,1.83,1.83,0,0,1-1.86-2A1.87,1.87,0,0,1,207,35Zm0-.74A2.69,2.69,0,0,0,204,37.1a2.93,2.93,0,0,0,5.85,0A2.67,2.67,0,0,0,207,34.3Zm9.44-.06c-.87,0-1.75.06-2.65.06v5.53h1.07v-1.6h1.58A2,2,0,1,0,216.39,34.24Zm-1.58,1.07h1.58a1.09,1.09,0,0,1,0,2.17h-1.58Zm6.66-1v5.44h3.95V39h-2.87V34.3Zm10.27.74a1.86,1.86,0,0,1,1.85,2.07,1.86,1.86,0,1,1-3.71,0A1.86,1.86,0,0,1,231.74,35Zm0-.74a2.69,2.69,0,0,0-2.93,2.8,2.61,2.61,0,0,0,2.93,2.73,2.77,2.77,0,1,0,0-5.53Zm10.87.93a2.25,2.25,0,0,0-2-.93c-.89,0-2,.39-2,1.45,0,1.24,1.09,1.55,2.07,1.68.64.08,1.12.29,1.12.82s-.54.83-1.11.83a1.49,1.49,0,0,1-1.43-.88l-.9.45a2.32,2.32,0,0,0,2.31,1.18c1.08,0,2.2-.43,2.2-1.58,0-1.33-1.1-1.63-2.11-1.77-.58-.08-1.08-.22-1.08-.7s.32-.74,1-.74a1.33,1.33,0,0,1,1.15.62Zm7.73,0a2.24,2.24,0,0,0-2-.93c-.89,0-2,.39-2,1.45,0,1.24,1.09,1.55,2.07,1.68.65.08,1.12.29,1.12.82s-.54.83-1.11.83a1.49,1.49,0,0,1-1.43-.88l-.9.45a2.33,2.33,0,0,0,2.31,1.18c1.08,0,2.2-.43,2.2-1.58,0-1.33-1.11-1.63-2.11-1.77-.58-.08-1.08-.22-1.08-.7s.33-.74,1-.74a1.35,1.35,0,0,1,1.15.62Zm5.12,4.6V34.3h-1.07v5.53Zm7.86-2.1L260.6,34.3h-.87v5.53h1.07V36.1l2.92,3.73h.67V34.3h-1.07ZM272.84,35a3.09,3.09,0,0,0-5,2.13c0,1.53.89,2.74,3.05,2.74a2.47,2.47,0,0,0,2-.78V36.69h-2.21v.75h1.47v1.13a1.82,1.82,0,0,1-1.3.51,1.89,1.89,0,0,1-2-2,2,2,0,0,1,2-2.05,2,2,0,0,1,1.42.6ZM281,38.8h-3.13V37.44h3v-.75h-3V35.32H281V34.25h-4.2v5.62H281Zm7.51-1.07-2.72-3.43h-.86v5.53H286V36.1l2.92,3.73h.66V34.3H288.5Z" style="fill: #292623;fill-rule: evenodd"/>
        <path d="M113.46,10.06h-4l-5.72,14.72L98.05,10.06h-4l7.85,19h3.7ZM133.9,29H137v-19h-3.62l-6.24,8.16-6.24-8.16h-3.65V29h3.08V15.24l6.36,8.27h.73l6.51-8.24Z" style="fill: #292623;fill-rule: evenodd"/>
        <polygon points="77.71 0 77.71 49.41 64.17 49.41 64.17 31.11 53.37 49.05 52.95 49.05 42.44 30.75 42.44 49.41 32.08 49.41 47.43 6.95 53.13 20.5 63.74 0 77.71 0" style="fill: #4aace1;fill-rule: evenodd"/>
        <path d="M17.42,49.41.4,0H0V49.41ZM16,0l8.61,28.92L35.27,0Z" style="fill: #292623;fill-rule: evenodd"/>
      </g>
    </g>
  </g>
</svg>
