<svg xmlns="http://www.w3.org/2000/svg" width="2.87mm" height="2.1mm" viewBox="0 0 8.14 5.95">
  <title>phone</title>
  <g id="Layer_2" data-name="Layer 2">
    <g id="Layer_1-2" data-name="Layer 1">
      <path d="M1.12,4.48c0,.17.66-1.76.66-1.76a1.93,1.93,0,0,1,1.08-.84V1.59a.47.47,0,0,1,.52-.49H4.73a.53.53,0,0,1,.55.54l0,.22a2.48,2.48,0,0,1,1,.87L7,4.52v.89c0,.51-.56.54-.56.54H1.66a.5.5,0,0,1-.54-.54ZM8,1.77l-.35.66-1.89-1A2.08,2.08,0,0,0,6,1c0-.1.05,0,0-.07A3.36,3.36,0,0,0,4.27.54h-.4A5.18,5.18,0,0,0,2.14.91c-.05,0-.09,0,0,.12s.23.43.23.43l-1.92,1L.09,1.77a.66.66,0,0,1,.33-1L1,.51A7.82,7.82,0,0,1,3.87,0H4.2a5.79,5.79,0,0,1,3,.51l.56.3A.66.66,0,0,1,8,1.77Z" style="fill: #47a9df;fill-rule: evenodd"/>
    </g>
  </g>
</svg>
